<svg width="34" height="20" viewBox="0 0 34 20" fill="none" xmlns="http://www.w3.org/2000/svg">
<path d="M26.208 17.8945C26.7902 17.8961 27.2626 18.3675 27.2627 18.9473C27.2627 19.5287 26.7903 20 26.208 20C25.626 19.9998 25.1553 19.5286 25.1553 18.9473C25.1554 18.366 25.6276 17.8948 26.208 17.8945ZM5.60742 3.11719C6.41623 2.96793 7.25045 2.9643 8.04981 3.09473C8.8507 3.22202 9.62017 3.47043 10.3408 3.79883C11.0631 4.1257 11.735 4.53815 12.3613 5.00488C12.4384 5.06297 12.522 5.12062 12.5928 5.17871L12.8115 5.35156C12.9579 5.46628 13.1029 5.58429 13.2461 5.70215C13.3908 5.81838 13.5319 5.93825 13.6719 6.05762C13.8135 6.17705 13.9543 6.29637 14.0928 6.41895C15.2021 7.3916 16.2448 8.41348 17.2754 9.42383C17.7884 9.93142 18.2991 10.4374 18.8105 10.9355C19.3234 11.4351 19.832 11.9147 20.3574 12.375C21.4006 13.2957 22.5018 14.1288 23.6787 14.6787C24.2657 14.9553 24.8719 15.1433 25.4824 15.2266C25.7877 15.2658 26.0945 15.2772 26.4014 15.2647C26.7082 15.2489 27.0141 15.2029 27.3193 15.1338C27.6243 15.0663 27.9246 14.9615 28.2217 14.8438C28.3695 14.7778 28.5194 14.7195 28.6641 14.6426C28.7365 14.6064 28.8142 14.5715 28.8818 14.5322L29.0879 14.418C29.1587 14.3818 29.223 14.3354 29.2891 14.293C29.3534 14.2491 29.4226 14.2104 29.4854 14.165C29.6097 14.0692 29.7425 13.9803 29.8574 13.875C30.1012 13.6755 30.317 13.4444 30.5215 13.2041C30.7227 12.9607 30.8976 12.6971 31.0596 12.4238C31.2106 12.1457 31.3508 11.8579 31.4531 11.5547C31.5554 11.253 31.6434 10.9415 31.6875 10.624L31.708 10.5049L31.7207 10.3848C31.7286 10.3048 31.7388 10.2245 31.7451 10.1445C31.7514 9.98431 31.7657 9.82234 31.7578 9.66211C31.7609 9.50045 31.7425 9.34037 31.7314 9.17871C31.7236 9.09857 31.7093 9.01765 31.6982 8.9375L31.6807 8.81641L31.6563 8.69727C31.5996 8.37685 31.4941 8.06898 31.3809 7.7627C31.3164 7.61353 31.2563 7.45931 31.1777 7.31641C31.1085 7.16715 31.0199 7.02871 30.9365 6.88574C30.7571 6.60916 30.5606 6.33988 30.334 6.09473C30.1153 5.84179 29.8602 5.62013 29.6006 5.40332C29.5331 5.3516 29.464 5.30308 29.3965 5.25293C29.3273 5.20428 29.2608 5.14788 29.1885 5.10547L28.9746 4.96875L28.8672 4.89941L28.7559 4.83789C28.1642 4.50635 27.5126 4.27234 26.8281 4.15918C26.1452 4.04761 25.4333 4.04239 24.7314 4.14453C24.0266 4.23883 23.3311 4.43067 22.6514 4.67578C23.2854 4.32855 23.9652 4.05364 24.6748 3.86035C25.386 3.67181 26.1337 3.59319 26.8857 3.63086C26.9802 3.63086 27.0736 3.64487 27.168 3.6543C27.2622 3.66527 27.3565 3.67145 27.4492 3.68555L27.7295 3.73633L27.8701 3.7627L28.0078 3.79785L28.2852 3.87012C28.378 3.89369 28.4664 3.92973 28.5576 3.95801C28.6472 3.99095 28.7401 4.01604 28.8281 4.05371L29.0928 4.16504L29.2246 4.22168L29.3516 4.28613L29.6074 4.41797C29.6939 4.46038 29.7727 4.5154 29.8545 4.5625C29.9362 4.61272 30.0175 4.66208 30.0977 4.71387C30.4124 4.93073 30.7258 5.16037 31.0059 5.43066C31.2937 5.69143 31.5486 5.98976 31.7861 6.30078C31.8994 6.46107 32.0167 6.62032 32.1143 6.79004C32.2211 6.95488 32.3088 7.13241 32.3984 7.30664C32.5668 7.66337 32.7169 8.03296 32.8145 8.41797L32.8535 8.56055L32.8848 8.70703C32.9052 8.80436 32.9286 8.90013 32.9443 8.99902C32.9727 9.19546 33.0075 9.39222 33.0186 9.5918C33.0406 9.78965 33.0392 9.98906 33.0439 10.1885C33.0424 10.2891 33.0379 10.3887 33.0332 10.4893L33.0254 10.6387L33.0088 10.7871C32.9742 11.1862 32.8892 11.5793 32.7822 11.9658C32.6737 12.3539 32.5217 12.7267 32.3486 13.0928C32.2527 13.2702 32.1643 13.4525 32.0527 13.6221C31.9977 13.7069 31.9485 13.7972 31.8887 13.8789L31.7129 14.125C31.4659 14.447 31.1998 14.7569 30.8994 15.0303C30.7547 15.1732 30.5922 15.2974 30.4365 15.4277C30.3563 15.4906 30.2723 15.5471 30.1904 15.6084C30.1071 15.668 30.0259 15.73 29.9395 15.7803L29.6797 15.9404C29.5931 15.9939 29.5061 16.0362 29.418 16.085C29.2465 16.1824 29.0641 16.2646 28.8848 16.3525C28.5182 16.5128 28.1406 16.6604 27.7441 16.7656C27.3492 16.8709 26.9412 16.9473 26.5273 16.9834C26.1135 17.018 25.6965 17.0106 25.2842 16.9697C24.4613 16.8817 23.6683 16.6509 22.9414 16.332C22.7573 16.255 22.5802 16.1665 22.4023 16.0801C22.3145 16.0362 22.2299 15.9888 22.1436 15.9434C22.0572 15.8979 21.9719 15.851 21.8887 15.8008C21.5488 15.6091 21.2255 15.3983 20.9092 15.1846C20.2799 14.751 19.6869 14.2843 19.1221 13.7988C18.5587 13.3132 18.0137 12.8033 17.4912 12.2988C16.9673 11.7945 16.4494 11.2872 15.9365 10.7813C14.9137 9.76609 13.8969 8.76688 12.8457 7.82715C12.7151 7.70934 12.5833 7.59123 12.4512 7.47656C12.319 7.36027 12.1865 7.24498 12.0527 7.13184C11.9191 7.01883 11.7856 6.90577 11.6504 6.7959L11.4473 6.63086C11.3796 6.57429 11.3151 6.52842 11.249 6.47656C10.725 6.0727 10.1629 5.72058 9.5791 5.43457C8.41151 4.86262 7.12701 4.59078 5.89649 4.77148C5.74079 4.78409 5.59103 4.82953 5.43848 4.85938L5.32422 4.88477C5.28645 4.89262 5.24968 4.90892 5.21191 4.91992L4.98926 4.99023L4.87695 5.02441C4.83919 5.03541 4.8028 5.05519 4.7666 5.06934L4.54492 5.16113C4.39561 5.21764 4.2526 5.29479 4.10645 5.36231C3.53364 5.64203 3.03388 6.02903 2.60742 6.48633C2.55087 6.54128 2.50537 6.60442 2.45508 6.66406C2.40633 6.72529 2.35105 6.78231 2.30859 6.84668C2.21899 6.97538 2.12351 7.09977 2.04492 7.23633C1.9584 7.36673 1.88839 7.50921 1.81445 7.64746C1.77669 7.71661 1.74984 7.79257 1.7168 7.86328C1.68538 7.9354 1.65149 8.00775 1.62793 8.08301L1.54688 8.30762C1.5217 8.38304 1.50309 8.46012 1.47949 8.53711L1.44629 8.65137C1.43685 8.69063 1.42876 8.73027 1.4209 8.76953L1.37109 9.00586C1.32077 9.32317 1.28125 9.64359 1.28125 9.96875C1.28125 10.2924 1.30018 10.6193 1.3584 10.9414C1.38041 11.1031 1.4234 11.2617 1.45801 11.4219C1.47843 11.5019 1.50339 11.5792 1.52539 11.6592L1.55957 11.7773C1.57213 11.8165 1.58646 11.8544 1.60059 11.8936L1.68457 12.126L1.78125 12.3525L1.83008 12.4658L1.88672 12.5762L2 12.7959L2.12793 13.0098C2.14988 13.0442 2.16887 13.0817 2.19238 13.1162L2.26367 13.2188C2.3108 13.2862 2.35657 13.357 2.40527 13.4229L2.55859 13.6191C2.60734 13.6867 2.6641 13.7483 2.7207 13.8096C2.77735 13.8709 2.83142 13.9354 2.88965 13.9951L3.06934 14.1689C3.09914 14.1971 3.12879 14.2286 3.16016 14.2568L3.25586 14.3389L3.44824 14.5029L3.65137 14.6514L3.75391 14.7275C3.7883 14.7525 3.82441 14.7725 3.86035 14.7959L4.07422 14.9326C4.65647 15.2831 5.3083 15.53 5.9834 15.6855C6.66164 15.8317 7.37004 15.8669 8.07031 15.7852C8.75787 15.7113 9.44851 15.4925 10.0889 15.1563C9.50665 15.5868 8.82534 15.8933 8.10938 16.0772C7.38875 16.2468 6.63507 16.2922 5.8877 16.2168C5.14021 16.1351 4.39982 15.929 3.70898 15.6006C3.54079 15.5111 3.36345 15.4323 3.20313 15.3272L2.95606 15.1768L2.71973 15.0098L2.60156 14.9268C2.56385 14.8969 2.52599 14.8658 2.48828 14.8359L2.26367 14.6514C2.19128 14.5869 2.12122 14.5201 2.04883 14.4541C1.97802 14.3881 1.90728 14.3219 1.84277 14.248C0.760138 13.126 0.109066 11.5948 0.0146484 10.0107C-0.093815 8.42998 0.413002 6.7741 1.46094 5.51074C1.98652 4.88688 2.62646 4.34871 3.33301 3.95898C3.50926 3.8647 3.6815 3.76569 3.86719 3.68555L4.14063 3.56055C4.18626 3.54012 4.23051 3.51631 4.2793 3.49902L4.42383 3.44727L4.71387 3.34375C4.76254 3.32805 4.80972 3.30747 4.8584 3.29492L5.30664 3.17773C5.40604 3.15263 5.50606 3.13053 5.60742 3.11719ZM6.69922 0C7.2813 0.00171312 7.75284 0.471448 7.75293 1.05273C7.75293 1.6341 7.28135 2.10533 6.69922 2.10547C6.11697 2.10547 5.64649 1.63418 5.64649 1.05273C5.64657 0.471359 6.1186 0 6.69922 0Z" fill="#D9008D"/>
</svg>
