<svg width="240" height="60" viewBox="0 0 240 60" fill="none" xmlns="http://www.w3.org/2000/svg">
<path d="M204.946 50.8737H180.993C180.139 50.8737 179.447 51.5663 179.447 52.4206V52.4232C179.447 53.2776 180.139 53.9702 180.993 53.9702H204.946C205.8 53.9702 206.492 53.2776 206.492 52.4232V52.4206C206.492 51.5663 205.8 50.8737 204.946 50.8737Z" fill="#1A1A1A"/>
<path d="M196.441 48.8267H189.5C188.982 48.8267 188.562 49.2471 188.562 49.7658V51.5006C188.562 52.0192 188.982 52.4397 189.5 52.4397H196.441C196.96 52.4397 197.38 52.0192 197.38 51.5006V49.7658C197.38 49.2471 196.96 48.8267 196.441 48.8267Z" fill="#1A1A1A"/>
<path d="M222.852 9H162.15C160.411 9 159.001 10.3824 159.001 12.0876V43.9124C159.001 45.6176 160.411 47 162.15 47H222.852C224.591 47 226.001 45.6176 226.001 43.9124V12.0876C226.001 10.3824 224.591 9 222.852 9Z" fill="#1A1A1A"/>
<path d="M222.149 11H162.853C161.83 11 161.001 11.8101 161.001 12.8093V43.1907C161.001 44.1899 161.83 45 162.853 45H222.149C223.172 45 224.001 44.1899 224.001 43.1907V12.8093C224.001 11.8101 223.172 11 222.149 11Z" fill="white"/>
<path d="M110 8.25589V51.7441C110 52.99 110.983 54 112.194 54H134.807C136.018 54 137 52.99 137 51.7441V8.25589C137 7.01001 136.018 6 134.807 6H112.194C110.983 6 110 7.01001 110 8.25589Z" fill="#1A1A1A"/>
<path d="M112.051 11.7719V47.0285C112.051 47.6725 112.572 48.1946 113.216 48.1946H133.974C134.617 48.1946 135.139 47.6725 135.139 47.0285V11.7719C135.139 11.1279 134.617 10.6058 133.974 10.6058H113.216C112.572 10.6058 112.051 11.1279 112.051 11.7719Z" fill="white"/>
<path d="M118.895 50.827V51.5887C118.895 51.7487 119.025 51.8783 119.185 51.8783H128.002C128.162 51.8783 128.292 51.7487 128.292 51.5887V50.827C128.292 50.6671 128.162 50.5374 128.002 50.5374H119.185C119.025 50.5374 118.895 50.6671 118.895 50.827Z" fill="white"/>
<path d="M124.596 8.49276C124.596 7.93807 124.146 7.4884 123.592 7.4884C123.038 7.4884 122.589 7.93807 122.589 8.49276C122.589 9.04744 123.038 9.4971 123.592 9.4971C124.146 9.4971 124.596 9.04744 124.596 8.49276Z" fill="white"/>
<path d="M82.4461 7.50293H21.95C20.2168 7.50293 18.8118 8.90915 18.8118 10.6438V43.0178C18.8118 44.7525 20.2168 46.1587 21.95 46.1587H82.4461C84.1793 46.1587 85.5843 44.7525 85.5843 43.0178V10.6438C85.5843 8.90915 84.1793 7.50293 82.4461 7.50293Z" fill="#1A1A1A"/>
<path d="M81.0482 9.74951H22.8514C21.8611 9.74951 21.0583 10.5623 21.0583 11.5648V41.634C21.0583 42.6365 21.8611 43.4493 22.8514 43.4493H81.0482C82.0384 43.4493 82.8412 42.6365 82.8412 41.634V11.5648C82.8412 10.5623 82.0384 9.74951 81.0482 9.74951Z" fill="white"/>
<path d="M15.4419 47.6689H87.9148V51.5064C87.9148 52.3568 87.2266 53.0455 86.3769 53.0455H16.9797C16.13 53.0455 15.4419 52.3568 15.4419 51.5064V47.6689Z" fill="#1A1A1A"/>
<path d="M57.935 48.7145H45.4214C44.7995 48.7145 44.2954 49.219 44.2954 49.8414V49.844C44.2954 50.4665 44.7995 50.971 45.4214 50.971H57.935C58.5569 50.971 59.0611 50.4665 59.0611 49.844V49.8414C59.0611 49.219 58.5569 48.7145 57.935 48.7145Z" fill="white"/>
</svg>
