<svg width="180" height="183" viewBox="0 0 180 183" fill="none" xmlns="http://www.w3.org/2000/svg">
<path d="M178.408 30.3C178.408 22.1 171.808 15.5 163.608 15.5H16.7082C8.5082 15.5 1.9082 22.1 1.9082 30.3V52.8L178.408 53V30.3Z" fill="#3B82E1" stroke="#1A1A1A" stroke-width="1.5" stroke-miterlimit="10"/>
<path d="M1.9086 52.8008V167.301C1.9086 175.501 8.5086 182.101 16.7086 182.101H163.509C171.709 182.101 178.309 175.501 178.309 167.301V53.1008L1.80859 52.9008L1.9086 52.8008Z" fill="#FAF9FC" stroke="#1A1A1A" stroke-width="1.5" stroke-miterlimit="10"/>
<path d="M43.3084 73.1016H24.4084C22.862 73.1016 21.6084 74.3552 21.6084 75.9016V94.8016C21.6084 96.348 22.862 97.6016 24.4084 97.6016H43.3084C44.8548 97.6016 46.1084 96.348 46.1084 94.8016V75.9016C46.1084 74.3552 44.8548 73.1016 43.3084 73.1016Z" fill="#DAE8F6"/>
<path d="M156.509 73.1016H137.609C136.062 73.1016 134.809 74.3552 134.809 75.9016V94.8016C134.809 96.348 136.062 97.6016 137.609 97.6016H156.509C158.055 97.6016 159.309 96.348 159.309 94.8016V75.9016C159.309 74.3552 158.055 73.1016 156.509 73.1016Z" fill="#DAE8F6"/>
<path d="M82.7088 143.398H63.8088C62.2624 143.398 61.0088 144.652 61.0088 146.198V165.098C61.0088 166.645 62.2624 167.898 63.8088 167.898H82.7088C84.2552 167.898 85.5088 166.645 85.5088 165.098V146.198C85.5088 144.652 84.2552 143.398 82.7088 143.398Z" fill="#DAE8F6"/>
<path d="M119.608 143.398H100.708C99.1618 143.398 97.9082 144.652 97.9082 146.198V165.098C97.9082 166.645 99.1618 167.898 100.708 167.898H119.608C121.155 167.898 122.408 166.645 122.408 165.098V146.198C122.408 144.652 121.155 143.398 119.608 143.398Z" fill="#DAE8F6"/>
<path d="M82.7088 73.1016H63.8088C62.2624 73.1016 61.0088 74.3552 61.0088 75.9016V94.8016C61.0088 96.348 62.2624 97.6016 63.8088 97.6016H82.7088C84.2552 97.6016 85.5088 96.348 85.5088 94.8016V75.9016C85.5088 74.3552 84.2552 73.1016 82.7088 73.1016Z" fill="#3884DA"/>
<path d="M65.6084 85.4016L71.2084 90.7016L82.1084 80.1016" stroke="white" stroke-width="3" stroke-linecap="round" stroke-linejoin="round"/>
<path d="M82.7088 108.898H63.8088C62.2624 108.898 61.0088 110.152 61.0088 111.698V130.598C61.0088 132.145 62.2624 133.398 63.8088 133.398H82.7088C84.2552 133.398 85.5088 132.145 85.5088 130.598V111.698C85.5088 110.152 84.2552 108.898 82.7088 108.898Z" fill="#3884DA"/>
<path d="M65.6094 121.197L71.2094 126.397L82.1094 115.797" stroke="white" stroke-width="3" stroke-linecap="round" stroke-linejoin="round"/>
<path d="M119.608 108.898H100.708C99.1618 108.898 97.9082 110.152 97.9082 111.698V130.598C97.9082 132.145 99.1618 133.398 100.708 133.398H119.608C121.155 133.398 122.408 132.145 122.408 130.598V111.698C122.408 110.152 121.155 108.898 119.608 108.898Z" fill="#3884DA"/>
<path d="M102.408 121.197L108.108 126.397L119.008 115.797" stroke="white" stroke-width="3" stroke-linecap="round" stroke-linejoin="round"/>
<path d="M156.509 108.898H137.609C136.062 108.898 134.809 110.152 134.809 111.698V130.598C134.809 132.145 136.062 133.398 137.609 133.398H156.509C158.055 133.398 159.309 132.145 159.309 130.598V111.698C159.309 110.152 158.055 108.898 156.509 108.898Z" fill="#3884DA"/>
<path d="M139.309 121.197L145.009 126.397L155.909 115.797" stroke="white" stroke-width="3" stroke-linecap="round" stroke-linejoin="round"/>
<path d="M119.608 73.1016H100.708C99.1618 73.1016 97.9082 74.3552 97.9082 75.9016V94.8016C97.9082 96.348 99.1618 97.6016 100.708 97.6016H119.608C121.155 97.6016 122.408 96.348 122.408 94.8016V75.9016C122.408 74.3552 121.155 73.1016 119.608 73.1016Z" fill="#DAE8F6"/>
<path d="M43.3084 108.898H24.4084C22.862 108.898 21.6084 110.152 21.6084 111.698V130.598C21.6084 132.145 22.862 133.398 24.4084 133.398H43.3084C44.8548 133.398 46.1084 132.145 46.1084 130.598V111.698C46.1084 110.152 44.8548 108.898 43.3084 108.898Z" fill="#DAE8F6"/>
<path d="M31.8944 166.699L27.0584 158.249V156.871H27.9164C28.7484 156.871 29.4591 156.785 30.0484 156.611C30.6377 156.438 31.1057 156.161 31.4524 155.779C31.7991 155.381 32.0157 154.869 32.1024 154.245H27.0584V152.503H32.0764C31.9551 151.914 31.7297 151.429 31.4004 151.047C31.0711 150.649 30.6291 150.354 30.0744 150.163C29.5197 149.973 28.8524 149.877 28.0724 149.877H27.0584V148.135H38.1084V149.877H33.4284C33.7924 150.207 34.0957 150.588 34.3384 151.021C34.5811 151.455 34.7371 151.949 34.8064 152.503H38.1084V154.245H34.8584C34.7371 155.511 34.2517 156.499 33.4024 157.209C32.5704 157.92 31.4784 158.379 30.1264 158.587L35.1444 166.699H31.8944Z" fill="#8099BF"/>
<path d="M40.2088 31C35.1088 31 31.0088 26.9 31.0088 21.8V9.20001C31.0088 4.10001 35.1088 0 40.2088 0C45.3088 0 49.4088 4.10001 49.4088 9.20001V21.8C49.4088 26.9 45.3088 31 40.2088 31ZM40.2088 5.90002C38.4088 5.90002 37.0088 7.30001 37.0088 9.10001V21.7C37.0088 23.5 38.4088 24.9 40.2088 24.9C42.0088 24.9 43.4088 23.5 43.4088 21.7V9.10001C43.4088 7.30001 42.0088 5.90002 40.2088 5.90002Z" fill="#FAF9FC"/>
<path d="M46.4088 9.09842C46.4088 5.67425 43.633 2.89844 40.2088 2.89844C36.7846 2.89844 34.0088 5.67425 34.0088 9.09842V21.7984C34.0088 25.2226 36.7846 27.9984 40.2088 27.9984C43.633 27.9984 46.4088 25.2226 46.4088 21.7984V9.09842Z" fill="#153550"/>
<path d="M90.1092 31C85.0092 31 80.9092 26.9 80.9092 21.8V9.20001C80.9092 4.10001 85.0092 0 90.1092 0C95.2092 0 99.3092 4.10001 99.3092 9.20001V21.8C99.3092 26.9 95.2092 31 90.1092 31ZM90.1092 5.90002C88.3092 5.90002 86.9092 7.30001 86.9092 9.10001V21.7C86.9092 23.5 88.3092 24.9 90.1092 24.9C91.9092 24.9 93.3092 23.5 93.3092 21.7V9.10001C93.3092 7.30001 91.9092 5.90002 90.1092 5.90002Z" fill="#FAF9FC"/>
<path d="M96.3092 9.09842C96.3092 5.67425 93.5333 2.89844 90.1092 2.89844C86.685 2.89844 83.9092 5.67425 83.9092 9.09842V21.7984C83.9092 25.2226 86.685 27.9984 90.1092 27.9984C93.5333 27.9984 96.3092 25.2226 96.3092 21.7984V9.09842Z" fill="#153550"/>
<path d="M140.009 31C134.909 31 130.809 26.9 130.809 21.8V9.20001C130.809 4.10001 134.909 0 140.009 0C145.109 0 149.209 4.10001 149.209 9.20001V21.8C149.209 26.9 145.109 31 140.009 31ZM140.009 5.90002C138.209 5.90002 136.809 7.30001 136.809 9.10001V21.7C136.809 23.5 138.209 24.9 140.009 24.9C141.809 24.9 143.209 23.5 143.209 21.7V9.10001C143.209 7.30001 141.809 5.90002 140.009 5.90002Z" fill="#FAF9FC"/>
<path d="M146.209 9.09842C146.209 5.67425 143.433 2.89844 140.009 2.89844C136.584 2.89844 133.809 5.67425 133.809 9.09842V21.7984C133.809 25.2226 136.584 27.9984 140.009 27.9984C143.433 27.9984 146.209 25.2226 146.209 21.7984V9.09842Z" fill="#153550"/>
</svg>
